<svg width="18" height="18" viewBox="0 0 18 18" fill="none" xmlns="http://www.w3.org/2000/svg">
<g id="eth">
<path id="Vector" d="M9 18C13.9705 18 18 13.9705 18 9C18 4.02944 13.9705 0 9 0C4.02944 0 0 4.02944 0 9C0 13.9705 4.02944 18 9 18Z" fill="#627EEA"/>
<path id="Vector_2" d="M9 3V7.43592L12.7492 9.1113L9 3Z" fill="white" fill-opacity="0.602"/>
<path id="Vector_3" d="M8.99977 3L5.25 9.1113L8.99977 7.43592V3Z" fill="white"/>
<path id="Vector_4" d="M9 11.9858V14.9999L12.7518 9.80933L9 11.9858Z" fill="white" fill-opacity="0.602"/>
<path id="Vector_5" d="M8.99977 14.9999V11.9853L5.25 9.80933L8.99977 14.9999Z" fill="white"/>
<path id="Vector_6" d="M9 11.2883L12.7492 9.11137L9 7.43701V11.2883Z" fill="white" fill-opacity="0.2"/>
<path id="Vector_7" d="M5.25 9.11137L8.99977 11.2883V7.43701L5.25 9.11137Z" fill="white" fill-opacity="0.602"/>
</g>
</svg>
