<svg width="12" height="12" viewBox="0 0 12 12" fill="none" xmlns="http://www.w3.org/2000/svg">
<path fill-rule="evenodd" clip-rule="evenodd" d="M7.75 9.5C7.75 10.4665 8.5335 11.25 9.5 11.25C10.4665 11.25 11.25 10.4665 11.25 9.5V3.56659L11.25 3.56264V3.08334C11.25 2.92863 11.1885 2.78026 11.0791 2.67087L10.7412 2.33296L10.7374 2.32915L8.74581 0.337524L7.92085 1.16248L9.37355 2.61518L8.85508 3.65214C8.27348 4.81533 8.92481 6.15594 10.0833 6.49969V9.5C10.0833 9.82217 9.82217 10.0833 9.5 10.0833C9.17783 10.0833 8.91667 9.82217 8.91667 9.5V8.33334C8.91667 7.36684 8.13316 6.58334 7.16667 6.58334V1.33333L6.58333 0.749995H1.33333L0.75 1.33333V10.6667L1.33333 11.25H6.58333L7.16667 10.6667V7.75C7.48883 7.75 7.75 8.01117 7.75 8.33334V9.5ZM6 4.24999H1.91667V1.91666H6V4.24999Z" fill="#6F58F6"/>
</svg>
